PathFileType	4	(X/Y/Z)	TVC_26_BWA1_walk_RCNL2025.trc
DataRate	CameraRate	NumFrames	NumMarkers	Units	OrigDataRate	OrigDataStartFrame	OrigNumFrames
100	100	10	27	mm	100	1	728
Frame#	Time	R_Shoulder			L_Shoulder			C7			J_Notch			R_Elbow			L_Elbow			R_Wrist			L_Wrist			R_Asis			L_Asis			R_Psis			L_Psis			Sacral			Thoracic			Sternum			R_Thigh_Lateral			R_Knee_Lateral			R_Shank_Lateral			R_Ankle_Lateral			R_Heel			R_Toe			L_Thigh_Lateral			L_Knee_Lateral			L_Shank_Lateral			L_Ankle_Lateral			L_Heel			L_Toe		
		X1	Y1	Z1	X2	Y2	Z2	X3	Y3	Z3	X4	Y4	Z4	X5	Y5	Z5	X6	Y6	Z6	X7	Y7	Z7	X8	Y8	Z8	X9	Y9	Z9	X10	Y10	Z10	X11	Y11	Z11	X12	Y12	Z12	X13	Y13	Z13	X14	Y14	Z14	X15	Y15	Z15	X16	Y16	Z16	X17	Y17	Z17	X18	Y18	Z18	X19	Y19	Z19	X20	Y20	Z20	X21	Y21	Z21	X22	Y22	Z22	X23	Y23	Z23	X24	Y24	Z24	X25	Y25	Z25	X26	Y26	Z26	X27	Y27	Z27
1	0.00000000	-1928.291138	1374.992676	305.902557	-1943.661133	1384.189575	-11.293972	-2012.384155	1416.438232	159.339706	-1864.414673	1317.164062	154.049789	-1912.883057	1035.158691	425.182617	-1982.697998	1051.750366	-105.272743	-1735.584900	915.257935	429.004059	-1875.818481	857.065521	-83.689571	-1857.920410	960.917297	305.534668	-1866.844482	965.146423	16.909033	-2074.128174	968.421448	232.709854	-2074.043457	962.185547	86.600639	-2074.085815	965.303497	159.655247	-2077.951904	1139.926880	150.149033	-1816.719727	1080.407959	143.026306	-1888.304810	579.018677	338.421051	-1876.568115	455.942719	276.121277	-1911.894409	273.061188	321.846191	-1950.510620	75.935875	259.752930	-1999.532959	58.903961	212.086655	-1815.781250	45.213898	239.772491	-1827.320557	610.847351	-53.704475	-1845.330322	480.254364	-4.307882	-1968.359863	306.279114	-47.127453	-2092.303955	152.681625	21.185503	-2132.670410	155.975906	81.449303	-1991.564697	60.738953	7.562950
2	0.01000000	-1924.513062	1375.416382	306.256042	-1939.965332	1384.679077	-10.736998	-2008.856323	1417.102051	159.830582	-1861.093018	1317.398193	154.588547	-1907.417847	1035.519409	424.820831	-1979.822876	1052.313232	-104.475006	-1729.902527	916.269257	426.603821	-1873.850891	856.726776	-82.281872	-1855.850708	960.883484	305.499451	-1865.392700	966.348938	16.453995	-2071.903809	969.080994	233.446747	-2072.208740	963.177734	87.331207	-2072.056274	966.129364	160.388977	-2075.363770	1140.830811	150.848633	-1814.489502	1080.449463	143.049332	-1886.393188	579.068237	338.731689	-1876.427490	455.886078	276.198517	-1911.968140	273.025787	321.906525	-1950.611938	75.903206	259.726135	-1999.594238	58.874615	212.011292	-1815.836670	45.096073	239.785706	-1822.187012	612.755859	-54.200710	-1837.410767	482.372498	-4.658349	-1958.114746	306.405792	-47.561172	-2078.130859	148.411713	21.369488	-2119.278809	151.058411	81.339134	-1975.356445	59.729721	7.921788
3	0.02000000	-1920.760376	1375.786255	306.545715	-1936.289673	1385.119751	-10.264554	-2005.333374	1417.701538	160.244522	-1857.763428	1317.597778	155.041199	-1902.027710	1035.801880	424.347900	-1976.944092	1052.828247	-103.780914	-1724.325500	917.137177	424.175369	-1871.955872	856.398224	-80.924623	-1853.703247	960.897339	305.497498	-1863.792358	967.474792	15.997805	-2069.609619	969.689880	234.049622	-2070.239990	964.078674	87.926491	-2069.924805	966.884277	160.988056	-2072.713135	1141.654663	151.461578	-1812.172607	1080.468018	143.049835	-1884.680420	579.137390	338.975067	-1876.294922	455.835388	276.252869	-1912.074829	273.003815	321.953766	-1950.715576	75.872810	259.689087	-1999.651855	58.847862	211.941132	-1815.885132	44.975704	239.784897	-1817.196045	614.539917	-54.631382	-1829.928711	484.352081	-4.983737	-1947.536987	306.157623	-47.934151	-2063.339355	143.994873	21.515039	-2105.094482	145.836472	81.265656	-1958.500488	58.778221	8.108686
4	0.03000000	-1917.033081	1376.102295	306.771576	-1932.634155	1385.511475	-9.876657	-2001.815063	1418.236572	160.581528	-1854.426025	1317.762695	155.407715	-1896.712646	1036.006104	423.763824	-1974.061279	1053.295288	-103.190460	-1718.853943	917.861633	421.718781	-1870.130371	856.081451	-79.624193	-1851.477417	960.958435	305.528442	-1862.043213	968.523376	15.540627	-2067.245361	970.247864	234.518478	-2068.137207	964.888428	88.386551	-2067.691284	967.568146	161.452515	-2070.000244	1142.398438	151.987793	-1809.769043	1080.463501	143.027725	-1883.165161	579.225708	339.152252	-1876.170166	455.790619	276.284363	-1912.214233	272.995270	321.987946	-1950.821289	75.844727	259.641876	-1999.705811	58.823784	211.876083	-1815.926880	44.853508	239.770767	-1812.349243	616.197754	-54.996983	-1822.884888	486.192413	-5.284220	-1936.632812	305.539673	-48.247070	-2047.931885	139.435272	21.621878	-2090.119385	140.315628	81.228165	-1941.001099	57.889206	8.123524
5	0.04000000	-1913.331055	1376.364380	306.933502	-1928.998657	1385.854248	-9.573361	-1998.301636	1418.707031	160.841507	-1851.080566	1317.893188	155.688049	-1891.472656	1036.131958	423.068848	-1971.174561	1053.714355	-102.703659	-1713.487976	918.442596	419.234314	-1868.367249	855.777679	-78.396687	-1849.172729	961.065369	305.591064	-1860.143921	969.493164	15.082934	-2064.811035	970.754761	234.853302	-2065.900146	965.606873	88.711502	-2065.355591	968.180817	161.782402	-2067.224609	1143.062134	152.427109	-1807.278564	1080.435791	142.982666	-1881.843384	579.332092	339.265747	-1876.052246	455.751678	276.293121	-1912.385132	272.999908	322.009155	-1950.928833	75.819069	259.584869	-1999.756104	58.802563	211.815948	-1815.962646	44.731155	239.745102	-1807.651855	617.724976	-55.299267	-1816.281616	487.891571	-5.560212	-1925.419800	304.566803	-48.502216	-2031.916138	134.744476	21.688988	-2074.360840	134.510956	81.224442	-1922.870483	57.074741	7.966531
6	0.05000000	-1909.654297	1376.572266	307.031372	-1925.383057	1386.148071	-9.354774	-1994.792725	1419.112915	161.024323	-1847.727173	1317.988892	155.882111	-1886.307739	1036.179443	422.263367	-1968.283813	1054.085327	-102.320541	-1708.227783	918.879822	416.722443	-1866.653137	855.488373	-77.269945	-1846.787354	961.215576	305.682831	-1858.092163	970.381165	14.625658	-2062.306396	971.209839	235.054123	-2063.529053	966.233704	88.901649	-2062.917725	968.721771	161.977886	-2064.386475	1143.645508	152.779144	-1804.700928	1080.385010	142.913940	-1880.705933	579.454407	339.319336	-1875.939453	455.718384	276.279358	-1912.585327	273.017395	322.017639	-1951.037476	75.796082	259.518799	-1999.802368	58.784527	211.760315	-1815.993652	44.611385	239.711197	-1803.113525	619.114075	-55.542561	-1810.122437	489.445923	-5.812399	-1913.934082	303.269135	-48.704826	-2015.307617	129.945023	21.714113	-2057.834961	128.451843	81.249634	-1904.132568	56.356434	7.639459
7	0.06000000	-1906.002319	1376.725708	307.064880	-1921.787354	1386.392578	-9.221084	-1991.288452	1419.454224	161.129761	-1844.365723	1318.049683	155.989685	-1881.218140	1036.148682	421.348145	-1965.389038	1054.408081	-102.041168	-1703.073669	919.172882	414.184113	-1864.966858	855.212463	-76.280794	-1844.319092	961.405029	305.799561	-1855.884399	971.182678	14.170274	-2059.730957	971.611877	235.121017	-2061.023682	966.768677	88.957588	-2060.377319	969.190277	162.039303	-2061.485840	1144.148804	153.043259	-1802.035645	1080.311157	142.820145	-1879.736206	579.589294	339.316650	-1875.828491	455.690460	276.243378	-1912.810547	273.047119	322.013611	-1951.146362	75.776215	259.444824	-1999.844238	58.770111	211.708572	-1816.022095	44.497700	239.673660	-1798.750366	620.354431	-55.735149	-1804.412476	490.849731	-6.041624	-1902.234253	301.695892	-48.864182	-1998.133911	125.072128	21.693733	-2040.570557	122.185013	81.295204	-1884.826416	55.765842	7.147310
8	0.07000000	-1902.374878	1376.823975	307.033539	-1918.211182	1386.587646	-9.172565	-1987.788330	1419.730591	161.157486	-1840.996094	1318.075562	156.010437	-1876.203857	1036.039795	420.324402	-1962.489624	1054.682129	-101.865608	-1698.026245	919.321228	411.620743	-1863.281555	854.940399	-75.465855	-1841.765015	961.628296	305.935150	-1853.515625	971.891418	13.718774	-2057.084473	971.959351	235.054199	-2058.384033	967.211243	88.880318	-2057.734253	969.585297	161.967258	-2058.522217	1144.571655	153.218491	-1799.282227	1080.214355	142.699081	-1878.909302	579.731628	339.260590	-1875.714355	455.667542	276.185516	-1913.054810	273.088135	321.997131	-1951.254150	75.760170	259.364594	-1999.881348	58.759815	211.660095	-1816.050049	44.393867	239.637863	-1794.585205	621.432190	-55.890610	-1799.156006	492.095215	-6.248599	-1890.404175	299.914856	-48.994186	-1980.435791	120.173599	21.623354	-2022.614868	115.775383	81.348457	-1865.009277	55.342979	6.500300
9	0.08000000	-1898.771118	1376.866699	306.936707	-1914.654175	1386.733154	-9.209597	-1984.292236	1419.942017	161.107132	-1837.618164	1318.066040	155.943909	-1871.265137	1035.853149	419.194000	-1959.585327	1054.907349	-101.793976	-1693.086060	919.324188	409.034454	-1861.570923	854.656250	-74.851646	-1839.121094	961.878967	306.081360	-1850.980103	972.499451	13.273568	-2054.365967	972.249878	234.854111	-2055.609863	967.560913	88.671410	-2054.987915	969.905396	161.762760	-2055.495361	1144.914429	153.303467	-1796.439819	1080.094727	142.547531	-1878.192017	579.875183	339.153809	-1875.590698	455.649261	276.106079	-1913.309937	273.139282	321.968109	-1951.359009	75.748886	259.280121	-1999.913452	58.754108	211.614166	-1816.079468	44.303444	239.609222	-1790.647827	622.331604	-56.028564	-1794.354980	493.173126	-6.433505	-1878.551270	298.008514	-49.113266	-1962.271240	115.308212	21.497835	-2004.037231	109.304443	81.392570	-1844.758179	55.133080	5.715292
10	0.09000000	-1895.189941	1376.853027	306.773499	-1911.116089	1386.828613	-9.332657	-1980.799438	1420.088257	160.978256	-1834.231812	1318.020874	155.789444	-1866.401978	1035.589355	417.959412	-1956.675293	1055.083008	-101.826385	-1688.254211	919.180817	406.428131	-1859.815308	854.348755	-74.446274	-1836.383057	962.150024	306.227844	-1848.271240	972.997620	12.837242	-2051.574463	972.480835	234.521515	-2052.701172	967.816956	88.333107	-2052.137817	970.148895	161.427311	-2052.405273	1145.177002	153.296478	-1793.507812	1079.952759	142.361221	-1877.544312	580.013428	339.000000	-1875.449341	455.635223	276.005249	-1913.566162	273.199005	321.926025	-1951.459106	75.743484	259.193665	-1999.940308	58.753319	211.570114	-1816.112305	44.229580	239.592880	-1786.973877	623.036072	-56.174713	-1790.006592	494.073364	-6.595546	-1866.800293	296.066498	-49.243149	-1943.718018	110.542877	21.311754	-1984.932861	102.866524	81.407356	-1824.171021	55.181946	4.816304
